<?xml version="1.0" standalone="no"?>
<!DOCTYPE svg PUBLIC "-//W3C//DTD SVG 20010904//EN"
 "http://www.w3.org/TR/2001/REC-SVG-20010904/DTD/svg10.dtd">
<svg version="1.0" xmlns="http://www.w3.org/2000/svg"
 width="1000.000000pt" height="1000.000000pt" viewBox="0 0 1000.000000 1000.000000"
 preserveAspectRatio="xMidYMid meet">
<metadata>
Created by potrace 1.14, written by Peter Selinger 2001-2017
</metadata>
<g transform="translate(0.000000,1000.000000) scale(0.100000,-0.100000)"
fill="#000000" stroke="none">
<path d="M2725 6852 c-15 -2 -35 -35 -80 -135 -32 -73 -79 -175 -103 -227 -24
-52 -56 -122 -72 -155 -15 -33 -37 -82 -50 -110 -13 -27 -34 -75 -47 -105 -32
-71 -124 -272 -174 -378 -21 -46 -39 -85 -39 -87 0 -2 -20 -46 -44 -97 -24
-52 -76 -165 -115 -251 -39 -86 -93 -204 -121 -263 -27 -58 -50 -108 -50 -109
0 -2 -20 -45 -44 -97 -64 -137 -96 -208 -96 -212 0 -2 -21 -48 -46 -102 -99
-213 -138 -299 -256 -559 -55 -121 -116 -254 -135 -295 -34 -73 -117 -254
-163 -355 -25 -56 -87 -191 -183 -400 l-64 -140 220 -3 c121 -1 224 1 228 5 4
5 116 249 248 543 l240 535 1139 3 1139 2 63 -142 c35 -79 75 -170 90 -203 16
-33 38 -82 50 -110 13 -27 37 -81 54 -120 18 -38 77 -170 131 -292 l100 -223
228 0 c126 0 226 3 224 8 -2 4 -11 23 -19 42 -9 19 -50 109 -91 200 -79 175
-122 268 -167 365 -15 33 -51 112 -80 175 -28 63 -68 149 -87 190 -19 41 -64
140 -100 219 -36 80 -78 172 -93 205 -24 52 -282 616 -460 1006 -87 190 -248
543 -302 660 -16 36 -61 135 -100 220 -39 85 -88 193 -110 240 -22 47 -48 103
-58 125 -36 82 -192 420 -196 424 -5 5 -377 8 -409 3z m277 -634 c131 -297
457 -1028 485 -1087 14 -31 43 -96 65 -146 22 -49 50 -112 62 -140 155 -343
278 -626 274 -630 -3 -3 -442 -4 -976 -3 l-971 3 14 30 c8 17 50 111 94 211
43 99 88 200 99 225 53 115 382 851 382 854 0 3 15 37 34 77 19 40 73 161 121
268 48 107 97 218 109 245 13 28 45 98 71 158 26 59 50 107 54 107 3 0 40 -78
83 -172z"/>
<path d="M5679 6850 c-1 -3 -2 -922 -3 -2042 l-1 -2038 216 0 216 0 1 633 c0
347 1 637 1 644 1 9 151 12 629 13 345 0 645 2 667 5 22 2 69 7 105 10 341 31
673 156 895 336 237 192 377 426 441 739 27 132 28 452 2 590 -67 362 -243
630 -550 838 -126 86 -368 185 -531 218 -10 2 -26 5 -35 8 -31 9 -232 36 -314
42 -100 8 -1737 11 -1739 4z m1791 -384 c133 -20 292 -58 355 -86 104 -44 166
-76 224 -115 188 -126 315 -320 366 -560 19 -90 28 -332 15 -410 -5 -27 -12
-67 -15 -89 -25 -149 -113 -319 -228 -437 -147 -152 -392 -268 -637 -303 -19
-2 -55 -7 -80 -11 -25 -3 -70 -8 -100 -10 -84 -6 -1251 -7 -1258 -1 -3 3 -6
463 -6 1021 l-1 1016 660 -4 c363 -3 680 -8 705 -11z"/>
</g>
</svg>
